<?xml version="1.0" encoding="UTF-8" standalone="no"?>
<svg
        xmlns:ooo="http://xml.openoffice.org/svg/export"
        xmlns:dc="http://purl.org/dc/elements/1.1/"
        xmlns:cc="http://creativecommons.org/ns#"
        xmlns:rdf="http://www.w3.org/1999/02/22-rdf-syntax-ns#"
        xmlns="http://www.w3.org/2000/svg"
        xmlns:sodipodi="http://sodipodi.sourceforge.net/DTD/sodipodi-0.dtd"
        xmlns:inkscape="http://www.inkscape.org/namespaces/inkscape"
        version="1.2"
        width="512"
        height="512"
        viewBox="0 0 14449.778 14449.779"
        preserveAspectRatio="xMidYMid"
        clip-path="url(#presentation_clip_path)"
        xml:space="preserve"
        id="svg2"
        inkscape:version="1.0 (4035a4f, 2020-05-01)"
        sodipodi:docname="web-shell.svg"
        style="fill-rule:evenodd;stroke-width:28.222;stroke-linejoin:round"
        inkscape:export-xdpi="96"
        inkscape:export-ydpi="96"><metadata
     id="metadata74"><rdf:RDF><cc:Work
         rdf:about=""><dc:format>image/svg+xml</dc:format><dc:type
           rdf:resource="http://purl.org/dc/dcmitype/StillImage" /><dc:title></dc:title></cc:Work></rdf:RDF></metadata><sodipodi:namedview
     pagecolor="#ffffff"
     bordercolor="#666666"
     borderopacity="1"
     objecttolerance="10"
     gridtolerance="10"
     guidetolerance="10"
     inkscape:pageopacity="0"
     inkscape:pageshadow="2"
     inkscape:window-width="1265"
     inkscape:window-height="759"
     id="namedview72"
     showgrid="false"
     units="cm"
     fit-margin-top="1"
     fit-margin-left="1"
     fit-margin-right="1"
     fit-margin-bottom="1"
     inkscape:zoom="0.89702958"
     inkscape:cx="383.593"
     inkscape:cy="262.87077"
     inkscape:window-x="1740"
     inkscape:window-y="61"
     inkscape:window-maximized="0"
     inkscape:current-layer="svg2"
     inkscape:document-rotation="0" /><defs
     class="ClipPathGroup"
     id="defs4"><clipPath
       id="presentation_clip_path"
       clipPathUnits="userSpaceOnUse"><rect
         x="0"
         y="0"
         width="21000"
         height="29700"
         id="rect7" /></clipPath></defs><defs
     class="TextShapeIndex"
     id="defs9"><g
       ooo:slide="id1"
       ooo:id-list="id3 id4"
       id="g11" /></defs><defs
     class="EmbeddedBulletChars"
     id="defs13"><g
       id="bullet-char-template(57356)"
       transform="matrix(4.8828125e-4,0,0,-4.8828125e-4,0,0)"><path
         d="M 580,1141 1163,571 580,0 -4,571 Z"
         id="path16"
         inkscape:connector-curvature="0" /></g><g
       id="bullet-char-template(57354)"
       transform="matrix(4.8828125e-4,0,0,-4.8828125e-4,0,0)"><path
         d="M 8,1128 H 1137 V 0 H 8 Z"
         id="path19"
         inkscape:connector-curvature="0" /></g><g
       id="bullet-char-template(10146)"
       transform="matrix(4.8828125e-4,0,0,-4.8828125e-4,0,0)"><path
         d="M 174,0 602,739 174,1481 1456,739 Z M 1358,739 309,1346 659,739 Z"
         id="path22"
         inkscape:connector-curvature="0" /></g><g
       id="bullet-char-template(10132)"
       transform="matrix(4.8828125e-4,0,0,-4.8828125e-4,0,0)"><path
         d="M 2015,739 1276,0 H 717 l 543,543 H 174 v 393 h 1086 l -543,545 h 557 z"
         id="path25"
         inkscape:connector-curvature="0" /></g><g
       id="bullet-char-template(10007)"
       transform="matrix(4.8828125e-4,0,0,-4.8828125e-4,0,0)"><path
         d="m 0,-2 c -7,16 -16,29 -25,39 l 381,530 c -94,256 -141,385 -141,387 0,25 13,38 40,38 9,0 21,-2 34,-5 21,4 42,12 65,25 l 27,-13 111,-251 280,301 64,-25 24,25 c 21,-10 41,-24 62,-43 C 886,937 835,863 770,784 769,783 710,716 594,584 L 774,223 c 0,-27 -21,-55 -63,-84 l 16,-20 C 717,90 699,76 672,76 641,76 570,178 457,381 L 164,-76 c -22,-34 -53,-51 -92,-51 -42,0 -63,17 -64,51 -7,9 -10,24 -10,44 0,9 1,19 2,30 z"
         id="path28"
         inkscape:connector-curvature="0" /></g><g
       id="bullet-char-template(10004)"
       transform="matrix(4.8828125e-4,0,0,-4.8828125e-4,0,0)"><path
         d="M 285,-33 C 182,-33 111,30 74,156 52,228 41,333 41,471 c 0,78 14,145 41,201 34,71 87,106 158,106 53,0 88,-31 106,-94 l 23,-176 c 8,-64 28,-97 59,-98 l 735,706 c 11,11 33,17 66,17 42,0 63,-15 63,-46 V 965 c 0,-36 -10,-64 -30,-84 L 442,47 C 390,-6 338,-33 285,-33 Z"
         id="path31"
         inkscape:connector-curvature="0" /></g><g
       id="bullet-char-template(9679)"
       transform="matrix(4.8828125e-4,0,0,-4.8828125e-4,0,0)"><path
         d="M 813,0 C 632,0 489,54 383,161 276,268 223,411 223,592 c 0,181 53,324 160,431 106,107 249,161 430,161 179,0 323,-54 432,-161 108,-107 162,-251 162,-431 0,-180 -54,-324 -162,-431 C 1136,54 992,0 813,0 Z"
         id="path34"
         inkscape:connector-curvature="0" /></g><g
       id="bullet-char-template(8226)"
       transform="matrix(4.8828125e-4,0,0,-4.8828125e-4,0,0)"><path
         d="m 346,457 c -73,0 -137,26 -191,78 -54,51 -81,114 -81,188 0,73 27,136 81,188 54,52 118,78 191,78 73,0 134,-26 185,-79 51,-51 77,-114 77,-187 0,-75 -25,-137 -76,-188 -50,-52 -112,-78 -186,-78 z"
         id="path37"
         inkscape:connector-curvature="0" /></g><g
       id="bullet-char-template(8211)"
       transform="matrix(4.8828125e-4,0,0,-4.8828125e-4,0,0)"><path
         d="M -4,459 H 1135 V 606 H -4 Z"
         id="path40"
         inkscape:connector-curvature="0" /></g></defs><defs
     class="TextEmbeddedBitmaps"
     id="defs42" /><g
     id="g44"
     transform="translate(199.99956,200.00005)"><g
       id="id2"
       class="Master_Slide"><g
         id="bg-id2"
         class="Background" /><g
         id="bo-id2"
         class="BackgroundObjects" /></g></g><g
     class="SlideGroup"
     id="g49"
     transform="matrix(1.1614099,0,0,1.3920038,-813.10414,-1123.0838)"><g
       id="g51"><g
         id="id1"
         class="Slide"
         clip-path="url(#presentation_clip_path)"><g
           class="Page"
           id="g54"><g
             class="com.sun.star.drawing.CustomShape"
             id="g56"><g
               id="id3"><path
                 d="m 1439,1000 c -220,0 -439,219 -439,438 v 9124 c 0,219 219,439 439,439 h 11123 c 219,0 439,-220 439,-439 V 1438 c 0,-219 -220,-438 -439,-438 z m -439,0 z m 12001,10001 z"
                 id="path59"
                 inkscape:connector-curvature="0"
                 style="fill:#000000;stroke:none" /><path
                 d="m 1439,1000 c -220,0 -439,219 -439,438 v 9124 c 0,219 219,439 439,439 h 11123 c 219,0 439,-220 439,-439 V 1438 c 0,-219 -220,-438 -439,-438 z"
                 id="path61"
                 inkscape:connector-curvature="0"
                 style="fill:none;stroke:#b2b2b2;stroke-width:400;stroke-linecap:round;stroke-linejoin:round" /></g></g><g
             class="com.sun.star.drawing.CustomShape"
             id="g63"><g
               id="id4"><path
                 d="m 3852,7681 189,-3 174,-10 160,-16 145,-23 131,-31 59,-17 56,-19 53,-20 49,-22 45,-25 41,-25 74,-55 34,-29 30,-30 29,-30 26,-32 24,-33 21,-33 19,-34 16,-35 13,-36 11,-37 8,-38 7,-38 4,-41 1,-40 -2,-59 -7,-57 -11,-55 -15,-53 -19,-51 -24,-48 -28,-47 -32,-44 -36,-43 -39,-41 -42,-40 -44,-38 -47,-37 -51,-35 -53,-35 -56,-33 -119,-64 -128,-60 -137,-56 -146,-54 -618,-198 -153,-49 -152,-51 -303,-112 -74,-30 -73,-31 -70,-33 -67,-35 -67,-37 -63,-38 -63,-39 -59,-42 -57,-42 -55,-46 -51,-48 -50,-49 -47,-52 -44,-55 -41,-56 -38,-58 -35,-61 -29,-64 -26,-68 -21,-71 -16,-75 -11,-78 -8,-81 -2,-84 6,-151 22,-143 33,-135 48,-130 61,-122 35,-59 39,-56 42,-56 47,-53 101,-102 56,-49 59,-45 127,-85 139,-75 151,-67 164,-57 176,-48 188,-41 201,-30 v -992 h 847 v 975 l 221,5 213,15 206,25 99,17 99,18 183,41 164,38 143,38 122,36 -193,674 -130,-40 -146,-39 -160,-40 -177,-41 -95,-20 -100,-16 -107,-14 -112,-12 -241,-15 -265,-5 -148,3 -140,9 -131,16 -122,22 -114,27 -105,35 -96,40 -45,23 -43,24 -40,25 -37,27 -36,28 -31,30 -30,30 -27,32 -26,33 -21,34 -20,36 -17,38 -14,38 -11,39 -10,41 -6,42 -4,43 -1,45 1,48 5,48 7,44 11,43 14,41 17,39 20,38 22,36 25,34 29,33 30,32 34,31 37,31 39,29 42,29 45,27 46,27 50,26 104,50 112,46 122,45 555,181 757,268 173,73 82,39 80,40 77,43 74,44 72,46 69,48 66,50 63,52 59,54 56,56 53,59 48,62 47,63 42,67 38,68 34,72 27,76 23,79 18,82 13,87 9,89 2,94 -8,149 -20,142 -35,135 -47,128 -30,61 -33,59 -35,57 -39,55 -44,54 -46,52 -50,49 -53,48 -57,46 -60,44 -64,42 -68,38 -147,72 -162,64 -178,54 -192,46 -207,36 -223,29 V 9443 H 3637 V 8346 l -341,-7 -157,-10 -150,-13 -142,-16 -133,-22 -125,-24 -116,-28 -211,-59 -182,-57 -154,-55 -66,-28 -60,-27 254,-647 162,59 176,58 191,54 207,54 110,24 117,21 123,18 130,14 277,20 z m 3042,1736 h 5105 v 683 H 6894 Z"
                 id="path66"
                 inkscape:connector-curvature="0"
                 style="fill:#66ff00;stroke:none" /><path
                 d="m 3852,7681 189,-3 174,-10 160,-16 145,-23 131,-31 59,-17 56,-19 53,-20 49,-22 45,-25 41,-25 74,-55 34,-29 30,-30 29,-30 26,-32 24,-33 21,-33 19,-34 16,-35 13,-36 11,-37 8,-38 7,-38 4,-41 1,-40 -2,-59 -7,-57 -11,-55 -15,-53 -19,-51 -24,-48 -28,-47 -32,-44 -36,-43 -39,-41 -42,-40 -44,-38 -47,-37 -51,-35 -53,-35 -56,-33 -119,-64 -128,-60 -137,-56 -146,-54 -618,-198 -153,-49 -152,-51 -303,-112 -74,-30 -73,-31 -70,-33 -67,-35 -67,-37 -63,-38 -63,-39 -59,-42 -57,-42 -55,-46 -51,-48 -50,-49 -47,-52 -44,-55 -41,-56 -38,-58 -35,-61 -29,-64 -26,-68 -21,-71 -16,-75 -11,-78 -8,-81 -2,-84 6,-151 22,-143 33,-135 48,-130 61,-122 35,-59 39,-56 42,-56 47,-53 101,-102 56,-49 59,-45 127,-85 139,-75 151,-67 164,-57 176,-48 188,-41 201,-30 v -992 h 847 v 975 l 221,5 213,15 206,25 99,17 99,18 183,41 164,38 143,38 122,36 -193,674 -130,-40 -146,-39 -160,-40 -177,-41 -95,-20 -100,-16 -107,-14 -112,-12 -241,-15 -265,-5 -148,3 -140,9 -131,16 -122,22 -114,27 -105,35 -96,40 -45,23 -43,24 -40,25 -37,27 -36,28 -31,30 -30,30 -27,32 -26,33 -21,34 -20,36 -17,38 -14,38 -11,39 -10,41 -6,42 -4,43 -1,45 1,48 5,48 7,44 11,43 14,41 17,39 20,38 22,36 25,34 29,33 30,32 34,31 37,31 39,29 42,29 45,27 46,27 50,26 104,50 112,46 122,45 555,181 757,268 173,73 82,39 80,40 77,43 74,44 72,46 69,48 66,50 63,52 59,54 56,56 53,59 48,62 47,63 42,67 38,68 34,72 27,76 23,79 18,82 13,87 9,89 2,94 -8,149 -20,142 -35,135 -47,128 -30,61 -33,59 -35,57 -39,55 -44,54 -46,52 -50,49 -53,48 -57,46 -60,44 -64,42 -68,38 -147,72 -162,64 -178,54 -192,46 -207,36 -223,29 V 9443 H 3637 V 8346 l -341,-7 -157,-10 -150,-13 -142,-16 -133,-22 -125,-24 -116,-28 -211,-59 -182,-57 -154,-55 -66,-28 -60,-27 254,-647 162,59 176,58 191,54 207,54 110,24 117,21 123,18 130,14 277,20 z"
                 id="path68"
                 inkscape:connector-curvature="0"
                 style="fill:none;stroke:#000000;stroke-width:26;stroke-linejoin:miter" /><path
                 d="m 6894,9417 h 5105 v 683 H 6894 Z"
                 id="path70"
                 inkscape:connector-curvature="0"
                 style="fill:none;stroke:#000000;stroke-width:26;stroke-linejoin:miter" /></g></g></g></g></g></g></svg>
